<?xml version="1.0" standalone="no"?>
<!DOCTYPE svg PUBLIC "-//W3C//DTD SVG 20010904//EN"
 "http://www.w3.org/TR/2001/REC-SVG-20010904/DTD/svg10.dtd">
<svg version="1.0" xmlns="http://www.w3.org/2000/svg"
 width="600.000000pt" height="600.000000pt" viewBox="0 0 600.000000 600.000000"
 preserveAspectRatio="xMidYMid meet">
<g transform="translate(0.000000,600.000000) scale(0.100000,-0.100000)"
fill="#46b4df" stroke="none">
<path d="M2915 4711 c-46 -20 -74 -57 -82 -104 l-5 -32 -141 0 c-134 0 -144
-1 -176 -24 -62 -44 -61 -38 -61 -605 0 -501 1 -517 21 -572 40 -105 136 -175
290 -210 107 -24 135 -56 84 -96 -15 -11 -25 -30 -25 -44 0 -30 41 -74 70 -74
19 0 20 -6 20 -126 0 -96 3 -125 13 -122 24 8 36 72 35 181 l-2 107 -31 0
c-17 0 -40 7 -51 15 -19 15 -18 16 9 36 29 22 35 60 16 102 -15 33 -39 45
-122 63 -137 29 -217 82 -261 174 -20 44 -21 59 -24 568 l-3 523 30 29 29 30
167 0 168 0 -7 31 c-7 37 15 93 42 108 38 20 82 13 114 -20 28 -27 30 -34 24
-75 l-6 -44 166 0 166 0 29 -30 30 -29 -3 -528 -3 -528 -29 -53 c-47 -83 -128
-133 -269 -162 -74 -15 -107 -42 -114 -97 -5 -38 -3 -43 21 -54 29 -13 35 -43
10 -53 -9 -3 -29 -6 -45 -6 l-29 0 0 -107 c0 -129 -17 -187 -72 -244 -109
-112 -288 -86 -359 54 -15 28 -22 73 -29 168 -7 94 -15 143 -30 177 -42 94
-122 147 -235 154 -54 3 -60 1 -60 -17 0 -17 9 -21 60 -26 70 -6 100 -18 142
-53 49 -42 64 -85 79 -242 15 -156 27 -193 86 -253 125 -128 344 -89 425 76
24 50 28 72 31 165 l4 106 34 7 c59 11 75 83 27 121 -26 20 -26 22 -11 46 13
19 33 28 96 41 153 33 238 93 291 207 l26 55 0 527 0 526 -31 39 c-17 21 -45
43 -62 48 -17 6 -89 10 -161 10 l-131 -1 0 26 c0 14 -9 39 -20 57 -38 63 -101
84 -165 54z m-448 -373 c-3 -7 -5 -2 -5 12 0 14 2 19 5 13 2 -7 2 -19 0 -25z
m0 -105 c-3 -10 -5 -4 -5 12 0 17 2 24 5 18 2 -7 2 -21 0 -30z m0 -200 c-3
-10 -5 -2 -5 17 0 19 2 27 5 18 2 -10 2 -26 0 -35z m0 -445 c-2 -24 -4 -7 -4
37 0 44 2 63 4 43 2 -21 2 -57 0 -80z m470 -760 c-3 -8 -6 -5 -6 6 -1 11 2 17
5 13 3 -3 4 -12 1 -19z"/>
<path d="M2922 4637 c-27 -29 -28 -61 -2 -87 41 -41 110 -14 110 42 0 29 -38
68 -66 68 -11 0 -30 -10 -42 -23z m66 -40 c4 -20 -25 -34 -39 -20 -14 14 1 45
20 41 9 -2 17 -11 19 -21z"/>
<path d="M2614 4065 c-18 -8 -42 -27 -54 -42 -21 -27 -21 -33 -18 -308 3 -267
4 -282 25 -321 29 -54 70 -88 138 -113 94 -35 146 -44 260 -44 169 1 301 40
367 110 52 55 58 91 58 378 0 237 -2 263 -17 277 -60 51 -204 55 -338 10 l-52
-18 -50 27 c-105 57 -246 76 -319 44z m187 -22 c-16 -6 50 -35 86 -37 11 0 19
-4 17 -8 -5 -8 113 -70 178 -93 70 -25 176 -30 221 -11 21 8 36 20 32 26 -3 5
-2 10 3 10 5 0 13 9 18 21 8 17 10 13 11 -23 1 -31 -1 -38 -7 -23 -5 12 -9
-76 -10 -210 -1 -126 -5 -239 -9 -250 -5 -11 -5 -25 0 -31 6 -7 3 -16 -8 -25
-17 -13 -17 -13 -3 6 8 11 -4 4 -25 -16 -22 -20 -54 -44 -72 -53 -42 -21 -148
-46 -198 -46 -28 0 -36 -3 -26 -9 10 -6 0 -8 -29 -4 -34 5 -41 3 -35 -7 5 -9
4 -11 -4 -6 -6 4 -9 12 -6 17 4 5 -13 9 -37 9 -24 0 -72 7 -107 15 -45 11 -67
12 -76 5 -10 -8 -15 -8 -21 1 -4 7 -3 9 4 5 6 -3 13 -2 16 2 3 5 -11 16 -30
25 -19 9 -37 24 -40 32 -4 10 -13 13 -25 10 -12 -4 -21 1 -29 17 -10 21 -10
21 3 6 24 -31 27 -20 6 27 -18 41 -20 66 -19 319 2 244 4 276 18 288 15 12 16
11 3 -4 -16 -21 -8 -23 22 -6 18 10 79 18 182 26 6 0 4 -2 -4 -5z m517 -59
c35 -15 36 -16 17 -30 -26 -20 -82 -34 -130 -34 -46 1 -167 41 -172 57 -3 7 4
9 15 6 10 -2 34 0 53 5 55 16 175 14 217 -4z m-285 -22 c19 -17 16 -29 -5 -16
-7 5 -21 10 -31 11 -11 2 -28 10 -40 18 -19 13 -18 14 19 8 21 -3 47 -13 57
-21z m100 -46 c9 5 9 4 1 -5 -9 -10 -18 -9 -43 3 -17 9 -31 19 -31 22 0 2 14
-3 30 -11 17 -9 36 -13 43 -9z m-566 -53 c-3 -10 -5 -4 -5 12 0 17 2 24 5 18
2 -7 2 -21 0 -30z m800 -50 c-3 -10 -5 -2 -5 17 0 19 2 27 5 18 2 -10 2 -26 0
-35z m-800 -45 c-3 -7 -5 -2 -5 12 0 14 2 19 5 13 2 -7 2 -19 0 -25z m800
-210 c-2 -24 -4 -7 -4 37 0 44 2 63 4 43 2 -21 2 -57 0 -80z m-800 -65 c-2
-16 -4 -5 -4 22 0 28 2 40 4 28 2 -13 2 -35 0 -50z m800 -30 c-3 -10 -5 -2 -5
17 0 19 2 27 5 18 2 -10 2 -26 0 -35z m-54 -108 c-3 -9 -8 -14 -10 -11 -3 3
-2 9 2 15 9 16 15 13 8 -4z m-430 -92 c-7 -2 -19 -2 -25 0 -7 3 -2 5 12 5 14
0 19 -2 13 -5z"/>
<path d="M2903 3027 c-7 -12 -1 -15 37 -18 58 -4 92 0 88 12 -4 13 -117 18
-125 6z"/>
<path d="M3332 2889 c-64 -25 -149 -106 -181 -171 -46 -96 -44 -217 4 -311 38
-72 79 -113 155 -150 57 -28 74 -32 150 -32 71 0 94 4 141 26 79 37 133 90
171 167 29 59 33 76 33 147 -1 66 -6 91 -29 142 -32 70 -97 138 -167 174 -64
33 -203 37 -277 8z m149 -9 c-9 -9 -22 -14 -29 -12 -10 3 -13 -3 -10 -24 5
-42 38 -46 38 -5 0 37 10 38 83 11 97 -36 165 -114 195 -222 10 -37 10 -37
-21 -40 -41 -4 -43 -32 -3 -36 27 -3 28 -5 22 -44 -9 -54 -36 -105 -82 -152
-42 -43 -125 -86 -166 -86 -23 0 -28 4 -28 25 0 18 -5 25 -20 25 -16 0 -20 -7
-20 -30 0 -16 -1 -30 -2 -30 -12 1 -101 31 -118 40 -72 38 -140 133 -156 215
-6 35 -5 38 13 33 12 -3 26 -2 33 2 20 13 3 40 -25 40 -29 0 -29 1 -14 55 28
98 113 183 217 215 32 9 56 21 55 27 -1 5 11 10 26 10 25 0 26 -2 12 -17z
m-335 -289 c-4 -5 0 -12 6 -14 8 -3 6 -6 -4 -6 -18 -1 -24 10 -11 22 9 10 15
8 9 -2z m644 -33 c0 -30 -1 -31 -14 -12 -10 13 -11 23 -4 31 15 19 18 16 18
-19z m-70 -203 c0 -2 -10 -9 -22 -15 -22 -11 -22 -10 -4 4 21 17 26 19 26 11z
m-243 -101 c-3 -3 -12 -4 -19 -1 -8 3 -5 6 6 6 11 1 17 -2 13 -5z"/>
<path d="M3442 2653 l3 -108 68 -3 c72 -3 100 8 90 35 -4 11 -19 14 -64 11
l-59 -3 0 88 c0 81 -1 87 -20 87 -20 0 -21 -5 -18 -107z"/>
<path d="M2967 2594 c-4 -4 -7 -37 -7 -73 0 -96 -26 -230 -67 -345 -95 -268
-103 -297 -112 -382 -5 -52 -5 -114 0 -151 14 -101 81 -243 114 -243 25 0 27
20 5 50 -47 66 -71 137 -77 228 -8 119 7 195 76 386 80 222 95 289 96 420 0
102 -7 130 -28 110z"/>
<path d="M2872 2449 c-13 -73 -53 -161 -115 -256 -96 -148 -135 -265 -123
-373 10 -84 16 -100 38 -100 18 0 19 4 12 53 -19 133 7 236 93 370 113 177
178 367 125 367 -15 0 -21 -13 -30 -61z"/>
<path d="M3020 1864 c-16 -49 -8 -163 15 -201 20 -34 63 -63 93 -63 11 0 34
12 51 26 26 21 31 33 31 68 0 51 -24 87 -97 145 -28 22 -54 45 -58 51 -12 19
-23 10 -35 -26z m53 -18 c9 -7 17 -17 17 -21 0 -5 -8 -1 -18 8 -15 13 -21 14
-31 4 -10 -9 -11 -8 -6 6 8 20 14 21 38 3z m60 -82 c32 -32 44 -70 30 -93 -14
-21 -90 -22 -106 -1 -11 13 -10 13 6 1 21 -16 21 -13 2 32 -8 20 -15 57 -15
82 l0 46 28 -19 c15 -11 40 -32 55 -48z m31 0 c3 -8 2 -12 -4 -9 -6 3 -10 10
-10 16 0 14 7 11 14 -7z m26 -98 c0 -2 -8 -10 -17 -17 -16 -13 -17 -12 -4 4
13 16 21 21 21 13z"/>
<path d="M2991 1533 c-25 -88 -7 -179 45 -231 31 -31 39 -34 72 -29 44 7 82
46 82 84 0 36 -42 105 -85 137 -19 15 -47 38 -62 52 -35 32 -40 31 -52 -13z
m44 -21 c-10 -2 3 -18 39 -47 82 -67 97 -145 27 -145 -48 0 -73 48 -85 163 -6
56 -6 57 14 45 17 -10 18 -14 5 -16z m9 -188 c3 -8 2 -12 -4 -9 -6 3 -10 10
-10 16 0 14 7 11 14 -7z"/>
</g>
</svg>
